<svg version="1.2" xmlns="http://www.w3.org/2000/svg" viewBox="0 0 31.884514257812498 32.00453125" width="32" height="33">
	<defs>
		<linearGradient id="g1" x2="1" gradientUnits="userSpaceOnUse" gradientTransform="matrix(18.638,20.103,-21.093,15.531,-0.261,5.683)">
			<stop offset="0" stop-color="#919191"/>
			<stop offset="1" stop-color="#22102d"/>
		</linearGradient>
		<linearGradient id="g2" x2="1" gradientUnits="userSpaceOnUse" gradientTransform="matrix(1.015,23.128,-13.439,1.959,17.343,.598)">
			<stop offset="0" stop-color="#1e1e1e"/>
			<stop offset=".319" stop-color="#ffeda3"/>
			<stop offset="1" stop-color="#fbfbfb"/>
		</linearGradient>
	</defs>
	<style>
		.s0 { fill: url(#g1) } 
		.s1 { fill: url(#g2) } 
	</style>
	<g id="Layer 1">
		<path class="s0" d="m31.78 4.72l-14.98 26.78c-0.31 0.56-1.1 0.56-1.42 0.01l-15.27-26.78c-0.34-0.6 0.17-1.33 0.85-1.21l14.99 2.68q0.04 0.01 0.08 0.01 0.03 0.01 0.07 0 0.03 0 0.07 0 0.04 0 0.07-0.01l14.68-2.67c0.68-0.13 1.19 0.59 0.86 1.19z"/>
		<path class="s1" d="m23.09 0.01l-11.08 2.17q-0.06 0.01-0.12 0.05-0.06 0.03-0.11 0.08-0.04 0.05-0.07 0.11-0.02 0.07-0.03 0.13l-0.68 11.52q0 0.09 0.03 0.18 0.04 0.09 0.12 0.15 0.07 0.07 0.16 0.09 0.1 0.02 0.19 0l3.09-0.71c0.28-0.07 0.55 0.18 0.49 0.47l-0.92 4.49c-0.06 0.31 0.22 0.56 0.52 0.47l1.9-0.57c0.3-0.09 0.58 0.17 0.52 0.47l-1.46 7.05c-0.09 0.44 0.5 0.68 0.74 0.3l0.17-0.25 9.03-18.02c0.15-0.3-0.11-0.65-0.44-0.58l-3.18 0.61c-0.3 0.06-0.55-0.22-0.47-0.51l2.07-7.19c0.09-0.29-0.17-0.57-0.47-0.51z"/>
	</g>
</svg>